<svg width="214" height="654" viewBox="0 0 214 654" fill="none" xmlns="http://www.w3.org/2000/svg">
<g filter="url(#filter0_dd_322_705)">
<line x1="122.443" y1="198.373" x2="122.443" y2="604" stroke="white" stroke-opacity="0.7" stroke-width="1.14908"/>
<line x1="162.661" y1="198.373" x2="162.661" y2="604" stroke="white" stroke-opacity="0.7" stroke-width="1.14908"/>
<line x1="116.697" y1="198.373" x2="116.697" y2="604" stroke="white" stroke-opacity="0.7" stroke-width="1.14908"/>
<line x1="156.915" y1="198.373" x2="156.915" y2="604" stroke="white" stroke-opacity="0.7" stroke-width="1.14908"/>
<line x1="121.868" y1="232.271" x2="156.341" y2="232.271" stroke="white" stroke-opacity="0.5" stroke-width="1.14908"/>
<line x1="121.868" y1="270.191" x2="156.341" y2="270.191" stroke="white" stroke-opacity="0.5" stroke-width="1.14908"/>
<line x1="121.868" y1="308.111" x2="156.341" y2="308.111" stroke="white" stroke-opacity="0.5" stroke-width="1.14908"/>
<line x1="121.868" y1="346.03" x2="156.341" y2="346.03" stroke="white" stroke-opacity="0.5" stroke-width="1.14908"/>
<line x1="121.868" y1="383.95" x2="156.341" y2="383.95" stroke="white" stroke-opacity="0.5" stroke-width="1.14908"/>
<line x1="121.868" y1="421.87" x2="156.341" y2="421.87" stroke="white" stroke-opacity="0.5" stroke-width="1.14908"/>
<line x1="121.868" y1="459.79" x2="156.341" y2="459.79" stroke="white" stroke-opacity="0.5" stroke-width="1.14908"/>
<line x1="121.868" y1="497.71" x2="156.341" y2="497.71" stroke="white" stroke-opacity="0.5" stroke-width="1.14908"/>
<line x1="121.868" y1="535.629" x2="156.341" y2="535.629" stroke="white" stroke-opacity="0.5" stroke-width="1.14908"/>
<line x1="121.868" y1="573.549" x2="156.341" y2="573.549" stroke="white" stroke-opacity="0.5" stroke-width="1.14908"/>
<g filter="url(#filter1_d_322_705)">
<path d="M133.998 247.38C134.424 247.407 134.831 247.427 135.218 247.44C135.618 247.44 136.038 247.433 136.478 247.42C136.918 247.407 137.391 247.387 137.898 247.36C138.418 247.333 139.018 247.293 139.698 247.24C139.778 247.24 139.858 247.233 139.938 247.22C140.018 247.207 140.098 247.2 140.178 247.2C140.258 247.187 140.331 247.173 140.398 247.16C140.478 247.147 140.544 247.14 140.598 247.14C140.758 247.14 140.871 247.18 140.938 247.26C141.018 247.327 141.064 247.433 141.078 247.58C141.078 247.78 141.031 247.92 140.938 248C140.844 248.08 140.751 248.127 140.658 248.14C140.618 248.153 140.564 248.16 140.498 248.16C140.431 248.16 140.358 248.16 140.278 248.16C140.198 248.16 140.111 248.16 140.018 248.16C139.924 248.147 139.831 248.14 139.738 248.14C139.084 248.153 138.511 248.173 138.018 248.2C137.538 248.213 137.064 248.227 136.598 248.24C136.144 248.253 135.671 248.267 135.178 248.28C134.684 248.293 134.118 248.3 133.478 248.3C133.131 248.3 132.864 248.173 132.678 247.92C132.504 247.667 132.491 247.46 132.638 247.3C132.678 247.26 132.738 247.24 132.818 247.24C132.911 247.24 133.018 247.247 133.138 247.26C133.258 247.287 133.391 247.313 133.538 247.34C133.684 247.367 133.838 247.38 133.998 247.38ZM134.318 244.96C134.344 244.933 134.384 244.92 134.438 244.92C134.504 244.92 134.584 244.933 134.678 244.96C135.131 245.12 135.678 245.233 136.318 245.3C136.971 245.353 137.824 245.333 138.878 245.24C138.998 245.24 139.098 245.247 139.178 245.26C139.258 245.273 139.311 245.32 139.338 245.4C139.351 245.52 139.324 245.633 139.258 245.74C139.204 245.833 139.098 245.913 138.938 245.98C138.804 246.047 138.611 246.1 138.358 246.14C138.118 246.18 137.898 246.2 137.698 246.2C137.258 246.2 136.744 246.187 136.158 246.16C135.571 246.133 135.098 246.02 134.738 245.82C134.498 245.7 134.338 245.553 134.258 245.38C134.178 245.207 134.198 245.067 134.318 244.96ZM133.858 251.92C133.858 251.48 133.944 251.107 134.118 250.8C134.304 250.493 134.551 250.247 134.858 250.06C135.151 249.873 135.491 249.733 135.878 249.64C136.264 249.547 136.658 249.5 137.058 249.5C137.458 249.5 137.844 249.547 138.218 249.64C138.604 249.733 138.951 249.873 139.258 250.06C139.551 250.247 139.791 250.493 139.978 250.8C140.164 251.107 140.258 251.48 140.258 251.92C140.258 252.36 140.164 252.733 139.978 253.04C139.791 253.347 139.544 253.6 139.238 253.8C138.944 253.987 138.604 254.127 138.218 254.22C137.831 254.3 137.444 254.34 137.058 254.34C136.644 254.34 136.244 254.3 135.858 254.22C135.484 254.127 135.144 253.987 134.838 253.8C134.544 253.6 134.304 253.347 134.118 253.04C133.944 252.733 133.858 252.36 133.858 251.92ZM134.858 251.92C134.858 252.4 135.038 252.787 135.398 253.08C135.758 253.373 136.311 253.52 137.058 253.52C137.778 253.52 138.324 253.373 138.698 253.08C139.071 252.787 139.258 252.4 139.258 251.92C139.258 251.44 139.071 251.053 138.698 250.76C138.338 250.467 137.791 250.32 137.058 250.32C136.311 250.32 135.758 250.467 135.398 250.76C135.038 251.04 134.858 251.427 134.858 251.92ZM143.298 244.54C143.418 244.447 143.551 244.427 143.698 244.48C143.858 244.533 143.998 244.62 144.118 244.74C144.371 245.033 144.571 245.353 144.718 245.7C144.864 246.033 144.938 246.387 144.938 246.76L144.778 253.04C144.764 253.24 144.744 253.447 144.718 253.66C144.704 253.873 144.678 254.073 144.638 254.26C144.584 254.433 144.518 254.587 144.438 254.72C144.358 254.84 144.258 254.907 144.138 254.92C144.071 254.933 144.011 254.893 143.958 254.8C143.918 254.693 143.884 254.553 143.858 254.38C143.818 254.22 143.791 254.04 143.778 253.84C143.764 253.64 143.758 253.447 143.758 253.26V252.52L142.078 252.78C141.651 252.847 141.358 252.84 141.198 252.76C141.051 252.667 140.991 252.5 141.018 252.26C141.018 252.14 141.051 252.053 141.118 252C141.198 251.947 141.298 251.92 141.418 251.92C141.658 251.92 141.998 251.907 142.438 251.88C142.891 251.853 143.338 251.82 143.778 251.78L143.798 249.98L142.078 250.24C141.651 250.307 141.358 250.3 141.198 250.22C141.051 250.127 140.991 249.96 141.018 249.72C141.018 249.6 141.051 249.513 141.118 249.46C141.198 249.407 141.304 249.38 141.438 249.38C141.718 249.38 142.071 249.373 142.498 249.36C142.938 249.333 143.378 249.287 143.818 249.22L143.838 247.34C143.838 247.153 143.818 246.907 143.778 246.6C143.751 246.293 143.678 246.033 143.558 245.82C143.491 245.713 143.431 245.6 143.378 245.48C143.324 245.347 143.278 245.22 143.238 245.1C143.198 244.993 143.178 244.893 143.178 244.8C143.191 244.693 143.231 244.607 143.298 244.54ZM137.118 258.52C137.118 257.533 137.478 256.787 138.198 256.28C138.918 255.773 139.804 255.52 140.858 255.52C141.898 255.52 142.778 255.773 143.498 256.28C144.231 256.773 144.598 257.52 144.598 258.52C144.598 259.52 144.231 260.267 143.498 260.76C142.778 261.267 141.898 261.52 140.858 261.52C139.804 261.533 138.918 261.287 138.198 260.78C137.478 260.273 137.118 259.52 137.118 258.52ZM138.138 258.54C138.138 259.14 138.358 259.64 138.798 260.04C139.238 260.44 139.918 260.64 140.838 260.64C141.744 260.64 142.424 260.44 142.878 260.04C143.344 259.64 143.578 259.14 143.578 258.54C143.578 257.94 143.344 257.433 142.878 257.02C142.424 256.607 141.744 256.4 140.838 256.4C139.918 256.4 139.238 256.607 138.798 257.02C138.358 257.42 138.138 257.927 138.138 258.54Z" fill="white" style="mix-blend-mode:lighten" shape-rendering="crispEdges"/>
</g>
<g filter="url(#filter2_d_322_705)">
<path d="M132.962 436.78C132.975 436.74 133.022 436.713 133.102 436.7C133.182 436.687 133.275 436.68 133.382 436.68C133.502 436.68 133.628 436.687 133.762 436.7C133.908 436.7 134.048 436.693 134.182 436.68C134.702 436.667 135.182 436.647 135.622 436.62C136.062 436.58 136.475 436.54 136.862 436.5C137.248 436.46 137.622 436.42 137.982 436.38C138.355 436.327 138.742 436.28 139.142 436.24C139.568 436.2 139.895 436.233 140.122 436.34C140.348 436.447 140.462 436.7 140.462 437.1C140.448 437.62 140.415 438.12 140.362 438.6C140.322 439.067 140.255 439.627 140.162 440.28C140.122 440.507 140.075 440.747 140.022 441C139.982 441.24 139.928 441.453 139.862 441.64C139.795 441.84 139.715 442.007 139.622 442.14C139.542 442.26 139.442 442.307 139.322 442.28C139.268 442.28 139.228 442.26 139.202 442.22C139.175 442.18 139.155 442.1 139.142 441.98C139.142 441.847 139.142 441.653 139.142 441.4C139.155 441.147 139.182 440.8 139.222 440.36C139.235 440.093 139.248 439.827 139.262 439.56C139.288 439.28 139.308 439.007 139.322 438.74C139.335 438.473 139.348 438.207 139.362 437.94C139.375 437.66 139.382 437.38 139.382 437.1C138.822 437.153 138.315 437.207 137.862 437.26C137.422 437.3 136.995 437.34 136.582 437.38C136.155 437.42 135.728 437.46 135.302 437.5C134.875 437.54 134.408 437.573 133.902 437.6C133.662 437.627 133.422 437.553 133.182 437.38C132.955 437.207 132.882 437.007 132.962 436.78ZM142.622 434.54C142.742 434.433 142.875 434.407 143.022 434.46C143.182 434.513 143.322 434.6 143.442 434.72C143.695 435.027 143.895 435.353 144.042 435.7C144.202 436.033 144.282 436.38 144.282 436.74L144.202 440.8C144.535 440.787 144.848 440.773 145.142 440.76C145.448 440.733 145.728 440.713 145.982 440.7C146.222 440.687 146.442 440.673 146.642 440.66C146.842 440.647 147.015 440.64 147.162 440.64C147.322 440.64 147.428 440.68 147.482 440.76C147.535 440.84 147.562 440.94 147.562 441.06C147.562 441.233 147.508 441.367 147.402 441.46C147.308 441.54 147.195 441.58 147.062 441.58C146.995 441.593 146.935 441.6 146.882 441.6C146.842 441.587 146.788 441.573 146.722 441.56C146.655 441.56 146.582 441.553 146.502 441.54C146.422 441.527 146.322 441.52 146.202 441.52C145.868 441.52 145.528 441.527 145.182 441.54C144.835 441.553 144.508 441.56 144.202 441.56L144.122 445.64C144.108 445.84 144.088 446.053 144.062 446.28C144.048 446.493 144.022 446.687 143.982 446.86C143.928 447.047 143.862 447.207 143.782 447.34C143.702 447.46 143.602 447.527 143.482 447.54C143.415 447.553 143.355 447.513 143.302 447.42C143.262 447.313 143.222 447.18 143.182 447.02C143.142 446.873 143.115 446.713 143.102 446.54C143.088 446.367 143.082 446.207 143.082 446.06L143.162 437.34C143.162 437.14 143.142 436.893 143.102 436.6C143.075 436.293 143.008 436.033 142.902 435.82C142.835 435.7 142.768 435.58 142.702 435.46C142.648 435.34 142.602 435.22 142.562 435.1C142.522 434.98 142.502 434.873 142.502 434.78C142.515 434.687 142.555 434.607 142.622 434.54ZM133.402 444.12C133.842 444.12 134.262 444.113 134.662 444.1C135.075 444.073 135.482 444.04 135.882 444L135.782 441.06C135.782 440.993 135.808 440.92 135.862 440.84C135.928 440.747 136.062 440.7 136.262 440.7C136.462 440.7 136.595 440.733 136.662 440.8C136.742 440.853 136.782 440.953 136.782 441.1L136.722 443.94C137.282 443.9 137.882 443.86 138.522 443.82C139.162 443.767 139.882 443.7 140.682 443.62C140.762 443.62 140.842 443.62 140.922 443.62C141.002 443.607 141.075 443.593 141.142 443.58C141.222 443.58 141.295 443.58 141.362 443.58C141.428 443.567 141.488 443.553 141.542 443.54C141.688 443.54 141.802 443.58 141.882 443.66C141.962 443.74 142.008 443.84 142.022 443.96C142.022 444.12 141.988 444.247 141.922 444.34C141.855 444.433 141.775 444.487 141.682 444.5C141.628 444.513 141.575 444.52 141.522 444.52C141.468 444.507 141.402 444.5 141.322 444.5C141.242 444.487 141.148 444.48 141.042 444.48C140.935 444.467 140.815 444.467 140.682 444.48C140.055 444.547 139.415 444.607 138.762 444.66C138.122 444.713 137.468 444.767 136.802 444.82C136.135 444.873 135.468 444.92 134.802 444.96C134.135 444.987 133.482 445 132.842 445C132.508 445 132.248 444.873 132.062 444.62C131.888 444.367 131.868 444.167 132.002 444.02C132.042 443.98 132.102 443.967 132.182 443.98C132.275 443.98 132.388 443.993 132.522 444.02C132.642 444.047 132.775 444.073 132.922 444.1C133.068 444.127 133.228 444.133 133.402 444.12ZM135.242 447.42C135.188 447.3 135.195 447.193 135.262 447.1C135.328 446.993 135.415 446.913 135.522 446.86C135.642 446.82 135.762 446.813 135.882 446.84C136.015 446.867 136.115 446.94 136.182 447.06C136.328 447.367 136.468 447.793 136.602 448.34C136.735 448.887 136.842 449.487 136.922 450.14C137.415 450.22 137.962 450.28 138.562 450.32C139.175 450.36 139.795 450.38 140.422 450.38C141.048 450.38 141.675 450.36 142.302 450.32C142.928 450.293 143.522 450.253 144.082 450.2C144.188 450.2 144.275 450.24 144.342 450.32C144.408 450.4 144.442 450.5 144.442 450.62C144.455 450.727 144.435 450.827 144.382 450.92C144.328 451.027 144.242 451.087 144.122 451.1C143.695 451.18 143.188 451.233 142.602 451.26C142.028 451.3 141.422 451.32 140.782 451.32C140.142 451.32 139.495 451.3 138.842 451.26C138.202 451.22 137.602 451.16 137.042 451.08C136.722 451.04 136.455 450.947 136.242 450.8C136.028 450.653 135.908 450.427 135.882 450.12C135.802 449.6 135.702 449.1 135.582 448.62C135.475 448.127 135.362 447.727 135.242 447.42Z" fill="white" style="mix-blend-mode:lighten" shape-rendering="crispEdges"/>
</g>
<g filter="url(#filter3_d_322_705)">
<path d="M135.417 511.98C135.377 511.847 135.39 511.727 135.457 511.62C135.524 511.513 135.61 511.433 135.717 511.38C135.824 511.34 135.937 511.34 136.057 511.38C136.177 511.407 136.27 511.487 136.337 511.62C136.537 512.113 136.704 512.727 136.837 513.46C136.984 514.18 137.097 514.84 137.177 515.44C138.204 515.627 139.29 515.7 140.437 515.66C141.584 515.607 142.684 515.52 143.737 515.4C143.83 515.4 143.924 515.433 144.017 515.5C144.11 515.553 144.157 515.66 144.157 515.82C144.157 515.94 144.117 516.04 144.037 516.12C143.97 516.187 143.89 516.227 143.797 516.24C143.437 516.32 142.937 516.393 142.297 516.46C141.657 516.513 140.97 516.54 140.237 516.54C140.237 516.567 140.237 516.593 140.237 516.62C140.25 516.647 140.257 516.673 140.257 516.7L140.197 518.64C141.13 518.613 142.064 518.587 142.997 518.56C143.93 518.52 144.864 518.48 145.797 518.44C145.877 518.44 145.957 518.44 146.037 518.44C146.117 518.427 146.19 518.413 146.257 518.4C146.337 518.387 146.41 518.38 146.477 518.38C146.544 518.367 146.604 518.36 146.657 518.36C146.817 518.36 146.93 518.4 146.997 518.48C147.077 518.547 147.124 518.647 147.137 518.78C147.137 518.98 147.097 519.127 147.017 519.22C146.937 519.3 146.83 519.347 146.697 519.36C146.644 519.373 146.59 519.38 146.537 519.38C146.484 519.367 146.424 519.353 146.357 519.34C146.29 519.34 146.217 519.34 146.137 519.34C146.057 519.327 145.957 519.32 145.837 519.32C144.69 519.347 143.57 519.373 142.477 519.4C141.397 519.427 140.324 519.453 139.257 519.48C138.177 519.52 137.09 519.553 135.997 519.58C134.917 519.607 133.81 519.627 132.677 519.64C132.344 519.653 132.084 519.533 131.897 519.28C131.724 519.027 131.71 518.82 131.857 518.66C131.897 518.62 131.957 518.6 132.037 518.6C132.13 518.6 132.237 518.607 132.357 518.62C132.477 518.647 132.61 518.673 132.757 518.7C132.904 518.713 133.057 518.72 133.217 518.72C134.19 518.733 135.177 518.733 136.177 518.72C137.19 518.707 138.204 518.687 139.217 518.66L139.177 516.66C139.177 516.66 139.177 516.647 139.177 516.62C139.177 516.593 139.184 516.567 139.197 516.54C138.837 516.54 138.484 516.527 138.137 516.5C137.79 516.46 137.457 516.413 137.137 516.36C136.857 516.32 136.63 516.233 136.457 516.1C136.284 515.967 136.177 515.74 136.137 515.42C136.057 514.82 135.957 514.233 135.837 513.66C135.717 513.087 135.577 512.527 135.417 511.98ZM135.597 521.48C135.624 521.44 135.697 521.413 135.817 521.4C135.95 521.387 136.077 521.38 136.197 521.38C137.264 521.367 138.417 521.34 139.657 521.3C140.91 521.247 142.064 521.18 143.117 521.1C143.317 521.1 143.504 521.173 143.677 521.32C143.85 521.453 143.937 521.633 143.937 521.86C143.924 522.06 143.91 522.247 143.897 522.42C143.897 522.593 143.89 522.76 143.877 522.92C143.864 523.08 143.85 523.24 143.837 523.4C143.837 523.56 143.83 523.72 143.817 523.88C143.777 524.187 143.677 524.38 143.517 524.46C143.37 524.54 143.17 524.58 142.917 524.58C142.49 524.593 142.037 524.607 141.557 524.62C141.09 524.633 140.61 524.647 140.117 524.66C139.61 524.673 139.097 524.687 138.577 524.7C138.057 524.713 137.53 524.727 136.997 524.74L137.557 526.46C138.624 526.473 139.67 526.473 140.697 526.46C141.724 526.447 142.737 526.413 143.737 526.36C143.937 526.36 144.07 526.387 144.137 526.44C144.204 526.493 144.237 526.58 144.237 526.7C144.224 526.913 144.157 527.053 144.037 527.12C143.917 527.2 143.764 527.24 143.577 527.24C142.777 527.28 141.857 527.307 140.817 527.32C139.777 527.347 138.817 527.353 137.937 527.34C137.537 527.34 137.23 527.267 137.017 527.12C136.804 526.973 136.637 526.7 136.517 526.3C136.464 526.153 136.41 526.013 136.357 525.88C136.317 525.747 136.27 525.613 136.217 525.48C136.177 525.347 136.124 525.22 136.057 525.1C136.004 524.967 135.937 524.827 135.857 524.68C135.724 524.453 135.684 524.273 135.737 524.14C135.804 524.007 135.957 523.94 136.197 523.94C136.717 523.953 137.27 523.953 137.857 523.94C138.444 523.927 139.03 523.907 139.617 523.88C140.204 523.867 140.77 523.847 141.317 523.82C141.877 523.78 142.39 523.74 142.857 523.7L142.877 521.94C142.33 521.98 141.777 522.013 141.217 522.04C140.657 522.067 140.104 522.087 139.557 522.1C139.01 522.127 138.477 522.153 137.957 522.18C137.437 522.207 136.95 522.227 136.497 522.24C136.204 522.267 135.95 522.193 135.737 522.02C135.537 521.833 135.49 521.653 135.597 521.48Z" fill="white" style="mix-blend-mode:lighten" shape-rendering="crispEdges"/>
</g>
<g filter="url(#filter4_d_322_705)">
<path d="M133.46 329.2H146.02V330.58H133.46V329.2ZM138.9 324.72H140.4V329.9H138.9V324.72ZM133.4 324.18H147.04V331.46H145.52V325.54H133.4V324.18ZM132.64 324.18H134.14V334.42C134.14 335.7 134.56 335.98 136.76 335.98C137.82 335.98 143.3 335.98 144.64 335.98C146.58 335.98 146.9 335.46 147.14 333C147.52 333.26 148.16 333.48 148.62 333.56C148.28 336.52 147.66 337.4 144.68 337.4C143.88 337.4 137.6 337.4 136.86 337.4C133.62 337.4 132.64 336.82 132.64 334.42V324.18ZM135.98 320.54H142.26V321.88H135.3L135.98 320.54ZM136.02 319.14L137.68 319.46C136.26 321.84 134.18 324.48 131.3 326.58C131.06 326.22 130.56 325.72 130.2 325.48C132.92 323.64 134.94 321.16 136.02 319.14ZM141.6 320.54H141.94L142.24 320.46L143.26 321.12C142.48 322.66 141.3 324.38 140.28 325.46C140.06 325.16 139.6 324.72 139.32 324.5C140.18 323.54 141.14 321.96 141.6 320.84V320.54Z" fill="white" style="mix-blend-mode:lighten" shape-rendering="crispEdges"/>
</g>
<g filter="url(#filter5_d_322_705)">
<path d="M133.46 367.2H146.02V368.58H133.46V367.2ZM138.9 362.72H140.4V367.9H138.9V362.72ZM133.4 362.18H147.04V369.46H145.52V363.54H133.4V362.18ZM132.64 362.18H134.14V372.42C134.14 373.7 134.56 373.98 136.76 373.98C137.82 373.98 143.3 373.98 144.64 373.98C146.58 373.98 146.9 373.46 147.14 371C147.52 371.26 148.16 371.48 148.62 371.56C148.28 374.52 147.66 375.4 144.68 375.4C143.88 375.4 137.6 375.4 136.86 375.4C133.62 375.4 132.64 374.82 132.64 372.42V362.18ZM135.98 358.54H142.26V359.88H135.3L135.98 358.54ZM136.02 357.14L137.68 357.46C136.26 359.84 134.18 362.48 131.3 364.58C131.06 364.22 130.56 363.72 130.2 363.48C132.92 361.64 134.94 359.16 136.02 357.14ZM141.6 358.54H141.94L142.24 358.46L143.26 359.12C142.48 360.66 141.3 362.38 140.28 363.46C140.06 363.16 139.6 362.72 139.32 362.5C140.18 361.54 141.14 359.96 141.6 358.84V358.54Z" fill="white" style="mix-blend-mode:lighten" shape-rendering="crispEdges"/>
</g>
<g filter="url(#filter6_d_322_705)">
<path d="M133.998 285.38C134.424 285.407 134.831 285.427 135.218 285.44C135.618 285.44 136.038 285.433 136.478 285.42C136.918 285.407 137.391 285.387 137.898 285.36C138.418 285.333 139.018 285.293 139.698 285.24C139.778 285.24 139.858 285.233 139.938 285.22C140.018 285.207 140.098 285.2 140.178 285.2C140.258 285.187 140.331 285.173 140.398 285.16C140.478 285.147 140.544 285.14 140.598 285.14C140.758 285.14 140.871 285.18 140.938 285.26C141.018 285.327 141.064 285.433 141.078 285.58C141.078 285.78 141.031 285.92 140.938 286C140.844 286.08 140.751 286.127 140.658 286.14C140.618 286.153 140.564 286.16 140.498 286.16C140.431 286.16 140.358 286.16 140.278 286.16C140.198 286.16 140.111 286.16 140.018 286.16C139.924 286.147 139.831 286.14 139.738 286.14C139.084 286.153 138.511 286.173 138.018 286.2C137.538 286.213 137.064 286.227 136.598 286.24C136.144 286.253 135.671 286.267 135.178 286.28C134.684 286.293 134.118 286.3 133.478 286.3C133.131 286.3 132.864 286.173 132.678 285.92C132.504 285.667 132.491 285.46 132.638 285.3C132.678 285.26 132.738 285.24 132.818 285.24C132.911 285.24 133.018 285.247 133.138 285.26C133.258 285.287 133.391 285.313 133.538 285.34C133.684 285.367 133.838 285.38 133.998 285.38ZM134.318 282.96C134.344 282.933 134.384 282.92 134.438 282.92C134.504 282.92 134.584 282.933 134.678 282.96C135.131 283.12 135.678 283.233 136.318 283.3C136.971 283.353 137.824 283.333 138.878 283.24C138.998 283.24 139.098 283.247 139.178 283.26C139.258 283.273 139.311 283.32 139.338 283.4C139.351 283.52 139.324 283.633 139.258 283.74C139.204 283.833 139.098 283.913 138.938 283.98C138.804 284.047 138.611 284.1 138.358 284.14C138.118 284.18 137.898 284.2 137.698 284.2C137.258 284.2 136.744 284.187 136.158 284.16C135.571 284.133 135.098 284.02 134.738 283.82C134.498 283.7 134.338 283.553 134.258 283.38C134.178 283.207 134.198 283.067 134.318 282.96ZM133.858 289.92C133.858 289.48 133.944 289.107 134.118 288.8C134.304 288.493 134.551 288.247 134.858 288.06C135.151 287.873 135.491 287.733 135.878 287.64C136.264 287.547 136.658 287.5 137.058 287.5C137.458 287.5 137.844 287.547 138.218 287.64C138.604 287.733 138.951 287.873 139.258 288.06C139.551 288.247 139.791 288.493 139.978 288.8C140.164 289.107 140.258 289.48 140.258 289.92C140.258 290.36 140.164 290.733 139.978 291.04C139.791 291.347 139.544 291.6 139.238 291.8C138.944 291.987 138.604 292.127 138.218 292.22C137.831 292.3 137.444 292.34 137.058 292.34C136.644 292.34 136.244 292.3 135.858 292.22C135.484 292.127 135.144 291.987 134.838 291.8C134.544 291.6 134.304 291.347 134.118 291.04C133.944 290.733 133.858 290.36 133.858 289.92ZM134.858 289.92C134.858 290.4 135.038 290.787 135.398 291.08C135.758 291.373 136.311 291.52 137.058 291.52C137.778 291.52 138.324 291.373 138.698 291.08C139.071 290.787 139.258 290.4 139.258 289.92C139.258 289.44 139.071 289.053 138.698 288.76C138.338 288.467 137.791 288.32 137.058 288.32C136.311 288.32 135.758 288.467 135.398 288.76C135.038 289.04 134.858 289.427 134.858 289.92ZM143.298 282.54C143.418 282.447 143.551 282.427 143.698 282.48C143.858 282.533 143.998 282.62 144.118 282.74C144.371 283.033 144.571 283.353 144.718 283.7C144.864 284.033 144.938 284.387 144.938 284.76L144.778 291.04C144.764 291.24 144.744 291.447 144.718 291.66C144.704 291.873 144.678 292.073 144.638 292.26C144.584 292.433 144.518 292.587 144.438 292.72C144.358 292.84 144.258 292.907 144.138 292.92C144.071 292.933 144.011 292.893 143.958 292.8C143.918 292.693 143.884 292.553 143.858 292.38C143.818 292.22 143.791 292.04 143.778 291.84C143.764 291.64 143.758 291.447 143.758 291.26V290.52L142.078 290.78C141.651 290.847 141.358 290.84 141.198 290.76C141.051 290.667 140.991 290.5 141.018 290.26C141.018 290.14 141.051 290.053 141.118 290C141.198 289.947 141.298 289.92 141.418 289.92C141.658 289.92 141.998 289.907 142.438 289.88C142.891 289.853 143.338 289.82 143.778 289.78L143.798 287.98L142.078 288.24C141.651 288.307 141.358 288.3 141.198 288.22C141.051 288.127 140.991 287.96 141.018 287.72C141.018 287.6 141.051 287.513 141.118 287.46C141.198 287.407 141.304 287.38 141.438 287.38C141.718 287.38 142.071 287.373 142.498 287.36C142.938 287.333 143.378 287.287 143.818 287.22L143.838 285.34C143.838 285.153 143.818 284.907 143.778 284.6C143.751 284.293 143.678 284.033 143.558 283.82C143.491 283.713 143.431 283.6 143.378 283.48C143.324 283.347 143.278 283.22 143.238 283.1C143.198 282.993 143.178 282.893 143.178 282.8C143.191 282.693 143.231 282.607 143.298 282.54ZM137.118 296.52C137.118 295.533 137.478 294.787 138.198 294.28C138.918 293.773 139.804 293.52 140.858 293.52C141.898 293.52 142.778 293.773 143.498 294.28C144.231 294.773 144.598 295.52 144.598 296.52C144.598 297.52 144.231 298.267 143.498 298.76C142.778 299.267 141.898 299.52 140.858 299.52C139.804 299.533 138.918 299.287 138.198 298.78C137.478 298.273 137.118 297.52 137.118 296.52ZM138.138 296.54C138.138 297.14 138.358 297.64 138.798 298.04C139.238 298.44 139.918 298.64 140.838 298.64C141.744 298.64 142.424 298.44 142.878 298.04C143.344 297.64 143.578 297.14 143.578 296.54C143.578 295.94 143.344 295.433 142.878 295.02C142.424 294.607 141.744 294.4 140.838 294.4C139.918 294.4 139.238 294.607 138.798 295.02C138.358 295.42 138.138 295.927 138.138 296.54Z" fill="white" style="mix-blend-mode:lighten" shape-rendering="crispEdges"/>
</g>
<g filter="url(#filter7_d_322_705)">
<path d="M136.557 474.84C136.664 475.32 136.744 475.853 136.797 476.44C136.864 477.013 136.91 477.64 136.937 478.32C137.51 478.333 138.064 478.347 138.597 478.36C139.144 478.36 139.684 478.36 140.217 478.36C140.75 478.36 141.27 478.353 141.777 478.34C142.297 478.327 142.817 478.3 143.337 478.26C143.497 478.26 143.63 478.293 143.737 478.36C143.844 478.413 143.897 478.52 143.897 478.68C143.897 478.827 143.857 478.94 143.777 479.02C143.71 479.1 143.564 479.14 143.337 479.14C142.35 479.18 141.33 479.207 140.277 479.22C139.237 479.22 138.23 479.213 137.257 479.2C136.884 479.2 136.57 479.133 136.317 479C136.077 478.867 135.957 478.6 135.957 478.2C135.944 477.72 135.917 477.24 135.877 476.76C135.837 476.28 135.777 475.867 135.697 475.52C135.657 475.4 135.61 475.28 135.557 475.16C135.517 475.027 135.477 474.907 135.437 474.8C135.397 474.68 135.37 474.573 135.357 474.48C135.344 474.387 135.35 474.307 135.377 474.24C135.417 474.147 135.477 474.073 135.557 474.02C135.637 473.967 135.777 473.94 135.977 473.94C136.164 473.953 136.344 473.96 136.517 473.96C136.704 473.96 136.897 473.96 137.097 473.96C137.777 473.96 138.537 473.947 139.377 473.92C140.217 473.88 140.997 473.833 141.717 473.78C141.81 473.78 141.91 473.773 142.017 473.76C142.124 473.747 142.224 473.733 142.317 473.72C142.424 473.72 142.524 473.713 142.617 473.7C142.71 473.687 142.804 473.673 142.897 473.66C143.177 473.66 143.384 473.7 143.517 473.78C143.65 473.86 143.724 473.987 143.737 474.16C143.737 474.333 143.684 474.46 143.577 474.54C143.484 474.607 143.29 474.64 142.997 474.64C142.477 474.667 141.964 474.687 141.457 474.7C140.95 474.7 140.43 474.707 139.897 474.72C139.364 474.733 138.817 474.753 138.257 474.78C137.71 474.793 137.144 474.813 136.557 474.84ZM133.217 481.34C134.23 481.353 135.257 481.353 136.297 481.34C137.35 481.327 138.404 481.307 139.457 481.28C140.51 481.253 141.564 481.22 142.617 481.18C143.684 481.14 144.744 481.1 145.797 481.06C145.877 481.06 145.957 481.06 146.037 481.06C146.117 481.047 146.19 481.033 146.257 481.02C146.337 481.007 146.41 481 146.477 481C146.544 480.987 146.604 480.98 146.657 480.98C146.817 480.98 146.93 481.02 146.997 481.1C147.077 481.167 147.124 481.267 147.137 481.4C147.137 481.6 147.097 481.747 147.017 481.84C146.937 481.92 146.83 481.967 146.697 481.98C146.644 481.993 146.59 482 146.537 482C146.484 481.987 146.424 481.973 146.357 481.96C146.29 481.96 146.217 481.96 146.137 481.96C146.057 481.947 145.957 481.94 145.837 481.94C144.69 481.967 143.57 481.993 142.477 482.02C141.397 482.047 140.324 482.073 139.257 482.1C138.177 482.14 137.09 482.173 135.997 482.2C134.917 482.227 133.81 482.247 132.677 482.26C132.344 482.273 132.084 482.153 131.897 481.9C131.724 481.647 131.71 481.44 131.857 481.28C131.897 481.24 131.957 481.22 132.037 481.22C132.13 481.22 132.237 481.227 132.357 481.24C132.477 481.267 132.61 481.293 132.757 481.32C132.904 481.333 133.057 481.34 133.217 481.34ZM135.977 486.66C135.977 486.167 136.07 485.74 136.257 485.38C136.457 485.02 136.73 484.72 137.077 484.48C137.424 484.253 137.824 484.087 138.277 483.98C138.744 483.86 139.237 483.8 139.757 483.8C140.277 483.8 140.764 483.86 141.217 483.98C141.684 484.087 142.084 484.253 142.417 484.48C142.764 484.72 143.037 485.02 143.237 485.38C143.437 485.74 143.537 486.167 143.537 486.66C143.537 487.66 143.164 488.387 142.417 488.84C141.684 489.293 140.797 489.52 139.757 489.52C139.237 489.533 138.744 489.48 138.277 489.36C137.824 489.253 137.424 489.08 137.077 488.84C136.73 488.613 136.457 488.32 136.257 487.96C136.07 487.6 135.977 487.167 135.977 486.66ZM142.497 486.66C142.497 486.06 142.257 485.587 141.777 485.24C141.31 484.88 140.637 484.7 139.757 484.7C138.85 484.7 138.164 484.88 137.697 485.24C137.244 485.587 137.017 486.06 137.017 486.66C137.017 487.26 137.244 487.733 137.697 488.08C138.15 488.44 138.837 488.62 139.757 488.62C140.65 488.62 141.33 488.44 141.797 488.08C142.264 487.733 142.497 487.26 142.497 486.66Z" fill="white" style="mix-blend-mode:lighten" shape-rendering="crispEdges"/>
</g>
<g filter="url(#filter8_d_322_705)">
<path d="M133.458 555.84C133.458 554.68 133.784 553.727 134.438 552.98C135.104 552.233 136.004 551.86 137.138 551.86C138.258 551.86 139.151 552.24 139.818 553C140.484 553.747 140.818 554.693 140.818 555.84C140.818 557 140.484 557.953 139.818 558.7C139.164 559.447 138.271 559.82 137.138 559.82C136.004 559.82 135.104 559.447 134.438 558.7C133.784 557.953 133.458 557 133.458 555.84ZM134.478 555.86C134.478 556.673 134.698 557.38 135.138 557.98C135.578 558.567 136.238 558.86 137.118 558.86C137.998 558.86 138.664 558.567 139.118 557.98C139.571 557.38 139.798 556.673 139.798 555.86C139.798 555.047 139.571 554.34 139.118 553.74C138.664 553.127 137.998 552.82 137.118 552.82C136.238 552.82 135.578 553.127 135.138 553.74C134.698 554.34 134.478 555.047 134.478 555.86ZM143.298 548.54C143.418 548.433 143.551 548.407 143.698 548.46C143.858 548.513 143.998 548.6 144.118 548.72C144.371 549.027 144.571 549.353 144.718 549.7C144.864 550.033 144.938 550.38 144.938 550.74L144.778 563.04C144.764 563.24 144.744 563.453 144.718 563.68C144.704 563.893 144.678 564.087 144.638 564.26C144.584 564.447 144.518 564.6 144.438 564.72C144.358 564.853 144.258 564.927 144.138 564.94C144.071 564.953 144.011 564.907 143.958 564.8C143.918 564.707 143.884 564.58 143.858 564.42C143.818 564.273 143.791 564.113 143.778 563.94C143.764 563.767 143.758 563.607 143.758 563.46L143.838 551.34C143.838 551.14 143.818 550.893 143.778 550.6C143.751 550.293 143.684 550.033 143.578 549.82C143.511 549.7 143.444 549.58 143.378 549.46C143.324 549.34 143.278 549.22 143.238 549.1C143.198 548.98 143.178 548.873 143.178 548.78C143.191 548.687 143.231 548.607 143.298 548.54Z" fill="white" style="mix-blend-mode:lighten" shape-rendering="crispEdges"/>
</g>
<line x1="56.32" y1="50" x2="56.3199" y2="455.627" stroke="white" stroke-opacity="0.7" stroke-width="1.14908"/>
<line x1="96.5379" y1="50" x2="96.5379" y2="455.627" stroke="white" stroke-opacity="0.7" stroke-width="1.14908"/>
<line x1="50.5745" y1="50" x2="50.5745" y2="455.627" stroke="white" stroke-opacity="0.7" stroke-width="1.14908"/>
<line x1="90.7925" y1="50" x2="90.7925" y2="455.627" stroke="white" stroke-opacity="0.7" stroke-width="1.14908"/>
<line x1="55.7454" y1="83.8981" x2="90.218" y2="83.8981" stroke="white" stroke-opacity="0.5" stroke-width="1.14908"/>
<line x1="55.7454" y1="121.818" x2="90.2179" y2="121.818" stroke="white" stroke-opacity="0.5" stroke-width="1.14908"/>
<line x1="55.7454" y1="159.738" x2="90.2179" y2="159.738" stroke="white" stroke-opacity="0.5" stroke-width="1.14908"/>
<line x1="55.7454" y1="197.657" x2="90.2179" y2="197.657" stroke="white" stroke-opacity="0.5" stroke-width="1.14908"/>
<line x1="55.7454" y1="235.577" x2="90.2179" y2="235.577" stroke="white" stroke-opacity="0.5" stroke-width="1.14908"/>
<line x1="55.7454" y1="273.497" x2="90.2179" y2="273.497" stroke="white" stroke-opacity="0.5" stroke-width="1.14908"/>
<line x1="55.7454" y1="311.417" x2="90.2179" y2="311.417" stroke="white" stroke-opacity="0.5" stroke-width="1.14908"/>
<line x1="55.7454" y1="349.337" x2="90.2179" y2="349.337" stroke="white" stroke-opacity="0.5" stroke-width="1.14908"/>
<line x1="55.7454" y1="387.257" x2="90.218" y2="387.257" stroke="white" stroke-opacity="0.5" stroke-width="1.14908"/>
<line x1="55.7454" y1="425.176" x2="90.2179" y2="425.176" stroke="white" stroke-opacity="0.5" stroke-width="1.14908"/>
<g filter="url(#filter9_d_322_705)">
<path d="M69.3568 98.8C69.3701 98.76 69.4168 98.7333 69.4968 98.72C69.5768 98.7067 69.6701 98.7 69.7768 98.7C69.8968 98.7 70.0235 98.7 70.1568 98.7C70.2901 98.7 70.4235 98.7 70.5568 98.7C71.6368 98.6733 72.6501 98.64 73.5968 98.6C74.5435 98.56 75.5168 98.5133 76.5168 98.46C76.9568 98.4333 77.2901 98.4733 77.5168 98.58C77.7568 98.6867 77.8701 98.9333 77.8568 99.32C77.8435 99.5867 77.8301 99.8533 77.8168 100.12C77.8035 100.387 77.7835 100.673 77.7568 100.98C77.7435 101.287 77.7168 101.613 77.6768 101.96C77.6368 102.293 77.5901 102.653 77.5368 103.04C77.4701 103.467 77.3768 103.86 77.2568 104.22C77.1501 104.58 76.9768 104.74 76.7368 104.7C76.6301 104.7 76.5635 104.6 76.5368 104.4C76.5101 104.2 76.5301 103.773 76.5968 103.12C76.6635 102.373 76.7035 101.707 76.7168 101.12C76.7435 100.533 76.7635 99.92 76.7768 99.28C76.1768 99.32 75.5968 99.3533 75.0368 99.38C74.4901 99.4067 73.9501 99.4333 73.4168 99.46C72.8968 99.5 72.3768 99.5333 71.8568 99.56C71.3368 99.5867 70.8168 99.6067 70.2968 99.62C70.0568 99.6467 69.8168 99.5733 69.5768 99.4C69.3501 99.2267 69.2768 99.0267 69.3568 98.8ZM74.2968 106.82V111.38C74.2968 112.06 74.2368 112.52 74.1168 112.76C74.0101 113 73.8768 113.12 73.7168 113.12C73.5568 113.133 73.4368 113.04 73.3568 112.84C73.2768 112.653 73.2368 112.347 73.2368 111.92L73.1768 106.84C72.1101 106.88 71.0368 106.913 69.9568 106.94C68.8901 106.967 67.7968 106.987 66.6768 107C66.3435 107.013 66.0835 106.893 65.8968 106.64C65.7235 106.387 65.7101 106.18 65.8568 106.02C65.8968 105.98 65.9568 105.96 66.0368 105.96C66.1301 105.96 66.2368 105.973 66.3568 106C66.4768 106.013 66.6101 106.033 66.7568 106.06C66.9035 106.087 67.0568 106.1 67.2168 106.1C68.2301 106.113 69.2568 106.113 70.2968 106.1C71.3501 106.087 72.4035 106.067 73.4568 106.04C74.5101 106.013 75.5635 105.98 76.6168 105.94C77.6835 105.9 78.7435 105.86 79.7968 105.82C79.8768 105.82 79.9568 105.82 80.0368 105.82C80.1168 105.807 80.1901 105.793 80.2568 105.78C80.3368 105.767 80.4101 105.76 80.4768 105.76C80.5435 105.747 80.6035 105.74 80.6568 105.74C80.8168 105.74 80.9301 105.773 80.9968 105.84C81.0768 105.907 81.1235 106.007 81.1368 106.14C81.1368 106.34 81.0968 106.487 81.0168 106.58C80.9368 106.66 80.8301 106.707 80.6968 106.72C80.6435 106.733 80.5901 106.74 80.5368 106.74C80.4835 106.727 80.4235 106.713 80.3568 106.7C80.2901 106.7 80.2168 106.7 80.1368 106.7C80.0568 106.687 79.9568 106.68 79.8368 106.68C79.3568 106.693 78.8768 106.707 78.3968 106.72C77.9301 106.733 77.4701 106.747 77.0168 106.76C76.5501 106.773 76.0901 106.787 75.6368 106.8C75.1835 106.813 74.7368 106.82 74.2968 106.82Z" fill="white" style="mix-blend-mode:lighten" shape-rendering="crispEdges"/>
</g>
<g filter="url(#filter10_d_322_705)">
<path d="M68.7019 221.46C69.0886 221.5 69.5019 221.513 69.9419 221.5C70.3819 221.473 70.8219 221.44 71.2619 221.4C71.6886 221.347 72.1019 221.287 72.5019 221.22C72.9019 221.14 73.2552 221.06 73.5619 220.98C73.6952 220.953 73.8019 220.973 73.8819 221.04C73.9619 221.107 74.0086 221.193 74.0219 221.3C74.0486 221.407 74.0419 221.513 74.0019 221.62C73.9619 221.727 73.8886 221.8 73.7819 221.84C73.4886 221.947 73.1152 222.04 72.6619 222.12C72.2219 222.2 71.7619 222.26 71.2819 222.3C70.8019 222.353 70.3286 222.387 69.8619 222.4C69.4086 222.4 69.0152 222.38 68.6819 222.34C68.3619 222.313 68.1086 222.22 67.9219 222.06C67.7486 221.9 67.6686 221.62 67.6819 221.22C67.6819 220.953 67.6752 220.547 67.6619 220C67.6619 219.44 67.6552 218.86 67.6419 218.26C67.6152 217.673 67.5819 217.127 67.5419 216.62C67.5152 216.1 67.4752 215.74 67.4219 215.54C67.3819 215.42 67.3352 215.3 67.2819 215.18C67.2419 215.047 67.2019 214.927 67.1619 214.82C67.1352 214.713 67.1086 214.613 67.0819 214.52C67.0686 214.427 67.0752 214.34 67.1019 214.26C67.1286 214.153 67.1819 214.08 67.2619 214.04C67.3552 213.987 67.5019 213.96 67.7019 213.96C67.7952 213.973 67.8886 213.987 67.9819 214C68.0752 214 68.1686 214 68.2619 214C68.3552 214 68.4486 214 68.5419 214C68.6352 214 68.7352 213.993 68.8419 213.98C69.0419 213.967 69.2952 213.953 69.6019 213.94C69.9219 213.913 70.2486 213.887 70.5819 213.86C70.9286 213.833 71.2552 213.807 71.5619 213.78C71.8819 213.74 72.1419 213.707 72.3419 213.68C72.6219 213.653 72.8219 213.687 72.9419 213.78C73.0752 213.86 73.1486 213.987 73.1619 214.16C73.1619 214.333 73.1086 214.46 73.0019 214.54C72.9086 214.62 72.7152 214.66 72.4219 214.66C71.9819 214.673 71.3686 214.7 70.5819 214.74C69.7952 214.767 69.0286 214.813 68.2819 214.88C68.3352 215.187 68.3819 215.593 68.4219 216.1C68.4752 216.593 68.5219 217.12 68.5619 217.68C68.6952 217.68 68.8686 217.673 69.0819 217.66C69.3086 217.647 69.5419 217.627 69.7819 217.6C70.0219 217.587 70.2619 217.573 70.5019 217.56C70.7419 217.533 70.9619 217.507 71.1619 217.48C71.2552 217.48 71.3486 217.473 71.4419 217.46C71.5486 217.447 71.6486 217.433 71.7419 217.42C71.8486 217.407 71.9486 217.4 72.0419 217.4C72.1352 217.387 72.2286 217.373 72.3219 217.36C72.6152 217.36 72.8219 217.4 72.9419 217.48C73.0752 217.56 73.1486 217.68 73.1619 217.84C73.1619 218.013 73.1086 218.14 73.0019 218.22C72.9086 218.3 72.7086 218.34 72.4019 218.34C72.1619 218.353 71.8752 218.373 71.5419 218.4C71.2219 218.413 70.8886 218.427 70.5419 218.44C70.1952 218.453 69.8486 218.473 69.5019 218.5C69.1686 218.513 68.8752 218.52 68.6219 218.52C68.6486 219.12 68.6686 219.687 68.6819 220.22C68.6952 220.74 68.7019 221.153 68.7019 221.46ZM76.1819 210.54C76.3019 210.433 76.4352 210.407 76.5819 210.46C76.7419 210.513 76.8819 210.6 77.0019 210.72C77.2552 211.013 77.4552 211.333 77.6019 211.68C77.7619 212.027 77.8419 212.38 77.8419 212.74L77.7819 217.58C78.0752 217.58 78.3952 217.573 78.7419 217.56C79.0886 217.533 79.4486 217.5 79.8219 217.46C79.9686 217.46 80.1219 217.46 80.2819 217.46C80.4419 217.447 80.5886 217.44 80.7219 217.44C80.8552 217.453 80.9552 217.493 81.0219 217.56C81.0886 217.627 81.1219 217.72 81.1219 217.84C81.1219 218.04 81.0752 218.18 80.9819 218.26C80.8886 218.34 80.7752 218.387 80.6419 218.4C80.6019 218.413 80.5419 218.413 80.4619 218.4C80.3952 218.387 80.3086 218.373 80.2019 218.36C80.1086 218.36 80.0019 218.353 79.8819 218.34C79.7619 218.327 79.6552 218.32 79.5619 218.32C79.2286 218.347 78.9152 218.367 78.6219 218.38C78.3286 218.38 78.0419 218.38 77.7619 218.38L77.6819 225.04C77.6686 225.24 77.6486 225.453 77.6219 225.68C77.6086 225.893 77.5819 226.087 77.5419 226.26C77.4886 226.447 77.4219 226.6 77.3419 226.72C77.2619 226.853 77.1619 226.927 77.0419 226.94C76.9752 226.953 76.9152 226.907 76.8619 226.8C76.8219 226.707 76.7819 226.58 76.7419 226.42C76.7019 226.273 76.6752 226.113 76.6619 225.94C76.6486 225.767 76.6419 225.607 76.6419 225.46L76.7219 213.34C76.7219 213.14 76.7019 212.893 76.6619 212.6C76.6352 212.293 76.5686 212.033 76.4619 211.82C76.3952 211.7 76.3286 211.58 76.2619 211.46C76.2086 211.34 76.1619 211.22 76.1219 211.1C76.0819 210.98 76.0619 210.873 76.0619 210.78C76.0752 210.687 76.1152 210.607 76.1819 210.54Z" fill="white" style="mix-blend-mode:lighten" shape-rendering="crispEdges"/>
</g>
<g filter="url(#filter11_d_322_705)">
<path d="M73.4419 329.94C73.4419 330.46 73.3619 330.947 73.2019 331.4C73.0419 331.84 72.8152 332.227 72.5219 332.56C72.2286 332.893 71.8686 333.153 71.4419 333.34C71.0152 333.527 70.5286 333.62 69.9819 333.62C69.4219 333.633 68.9286 333.547 68.5019 333.36C68.0752 333.16 67.7152 332.893 67.4219 332.56C67.1286 332.227 66.9019 331.84 66.7419 331.4C66.5952 330.947 66.5219 330.46 66.5219 329.94C66.5219 328.9 66.8219 328.027 67.4219 327.32C68.0219 326.613 68.8752 326.26 69.9819 326.26C71.0752 326.26 71.9219 326.62 72.5219 327.34C73.1352 328.047 73.4419 328.913 73.4419 329.94ZM72.4219 329.96C72.4219 329.187 72.2152 328.533 71.8019 328C71.4019 327.467 70.7952 327.2 69.9819 327.2C69.1419 327.187 68.5219 327.447 68.1219 327.98C67.7352 328.513 67.5419 329.173 67.5419 329.96C67.5419 330.72 67.7352 331.373 68.1219 331.92C68.5219 332.467 69.1419 332.72 69.9819 332.68C70.7952 332.68 71.4019 332.42 71.8019 331.9C72.2152 331.367 72.4219 330.72 72.4219 329.96ZM76.1819 324.54C76.3019 324.447 76.4352 324.427 76.5819 324.48C76.7419 324.533 76.8819 324.62 77.0019 324.74C77.2552 325.033 77.4552 325.353 77.6019 325.7C77.7619 326.033 77.8419 326.387 77.8419 326.76L77.7619 329.22C78.0552 329.22 78.3752 329.213 78.7219 329.2C79.0819 329.173 79.4486 329.14 79.8219 329.1C79.9686 329.1 80.1219 329.1 80.2819 329.1C80.4419 329.087 80.5886 329.08 80.7219 329.08C80.8552 329.093 80.9552 329.133 81.0219 329.2C81.0886 329.267 81.1219 329.36 81.1219 329.48C81.1219 329.68 81.0752 329.82 80.9819 329.9C80.8886 329.98 80.7752 330.027 80.6419 330.04C80.6019 330.053 80.5419 330.053 80.4619 330.04C80.3952 330.027 80.3086 330.013 80.2019 330C80.1086 330 80.0019 329.993 79.8819 329.98C79.7619 329.967 79.6552 329.96 79.5619 329.96C79.2286 329.987 78.9086 330.007 78.6019 330.02C78.3086 330.02 78.0219 330.02 77.7419 330.02L77.6819 332.46C77.6686 332.66 77.6486 332.867 77.6219 333.08C77.6086 333.293 77.5819 333.493 77.5419 333.68C77.4886 333.853 77.4219 334.007 77.3419 334.14C77.2619 334.26 77.1619 334.327 77.0419 334.34C76.9752 334.353 76.9152 334.313 76.8619 334.22C76.8219 334.113 76.7819 333.98 76.7419 333.82C76.7019 333.673 76.6752 333.513 76.6619 333.34C76.6486 333.167 76.6419 333.013 76.6419 332.88L76.7219 327.34C76.7219 327.153 76.7019 326.907 76.6619 326.6C76.6352 326.293 76.5619 326.033 76.4419 325.82C76.3752 325.713 76.3152 325.6 76.2619 325.48C76.2086 325.347 76.1619 325.22 76.1219 325.1C76.0819 324.993 76.0619 324.893 76.0619 324.8C76.0752 324.693 76.1152 324.607 76.1819 324.54ZM69.4019 341.26C69.2419 341.247 69.1286 341.193 69.0619 341.1C68.9952 341.02 68.9619 340.927 68.9619 340.82C68.9619 340.727 68.9952 340.64 69.0619 340.56C69.1419 340.48 69.2552 340.44 69.4019 340.44C69.6019 340.467 69.8886 340.48 70.2619 340.48C70.6352 340.493 71.0619 340.5 71.5419 340.5C71.5419 340.273 71.5286 339.967 71.5019 339.58C71.4886 339.193 71.4619 338.887 71.4219 338.66C71.3819 338.447 71.3552 338.233 71.3419 338.02C71.3286 337.807 71.3686 337.673 71.4619 337.62C71.5819 337.553 71.7552 337.58 71.9819 337.7C72.2086 337.82 72.3486 338.12 72.4019 338.6C72.4152 338.853 72.4286 339.173 72.4419 339.56C72.4552 339.933 72.4619 340.24 72.4619 340.48C72.9019 340.48 73.3486 340.473 73.8019 340.46C74.2686 340.447 74.7286 340.42 75.1819 340.38C75.1819 339.967 75.1752 339.52 75.1619 339.04C75.1486 338.547 75.1219 338.12 75.0819 337.76C75.0552 337.64 75.0886 337.547 75.1819 337.48C75.2886 337.413 75.4086 337.38 75.5419 337.38C75.6752 337.38 75.7952 337.407 75.9019 337.46C76.0219 337.513 76.0886 337.6 76.1019 337.72C76.1286 338.133 76.1352 338.573 76.1219 339.04C76.1219 339.493 76.1219 339.92 76.1219 340.32C76.4819 340.293 76.8219 340.26 77.1419 340.22C77.4619 340.193 77.7619 340.147 78.0419 340.08C78.1352 340.067 78.2152 340.093 78.2819 340.16C78.3486 340.24 78.3886 340.327 78.4019 340.42C78.4152 340.527 78.4019 340.627 78.3619 340.72C78.3352 340.813 78.2752 340.873 78.1819 340.9C77.8752 340.993 77.3286 341.073 76.5419 341.14C75.7686 341.207 74.9286 341.253 74.0219 341.28C73.1019 341.32 72.2152 341.333 71.3619 341.32C70.5086 341.32 69.8552 341.3 69.4019 341.26ZM70.5619 335.86C70.9752 335.847 71.4619 335.833 72.0219 335.82C72.5819 335.793 73.1419 335.767 73.7019 335.74C74.2619 335.713 74.7886 335.687 75.2819 335.66C75.7886 335.633 76.1886 335.6 76.4819 335.56C76.6286 335.547 76.7752 335.533 76.9219 335.52C77.0819 335.493 77.2152 335.48 77.3219 335.48C77.5219 335.48 77.6552 335.513 77.7219 335.58C77.8019 335.647 77.8486 335.753 77.8619 335.9C77.8619 336.1 77.8152 336.24 77.7219 336.32C77.6419 336.387 77.5486 336.427 77.4419 336.44C77.4019 336.453 77.3552 336.46 77.3019 336.46C77.2486 336.447 77.1819 336.44 77.1019 336.44C77.0219 336.427 76.9286 336.42 76.8219 336.42C76.7286 336.42 76.6152 336.42 76.4819 336.42C76.2019 336.447 75.7952 336.48 75.2619 336.52C74.7419 336.547 74.1752 336.58 73.5619 336.62C72.9486 336.66 72.3352 336.693 71.7219 336.72C71.1086 336.733 70.5752 336.74 70.1219 336.74C69.7219 336.74 69.4286 336.62 69.2419 336.38C69.0552 336.127 69.0286 335.92 69.1619 335.76C69.2019 335.72 69.2619 335.707 69.3419 335.72C69.4352 335.72 69.5486 335.733 69.6819 335.76C69.8019 335.787 69.9352 335.813 70.0819 335.84C70.2286 335.867 70.3886 335.873 70.5619 335.86Z" fill="white" style="mix-blend-mode:lighten" shape-rendering="crispEdges"/>
</g>
<g filter="url(#filter12_d_322_705)">
<path d="M76.6427 177.34C76.6427 177.607 76.596 177.893 76.5027 178.2C76.4093 178.507 76.2627 178.793 76.0627 179.06C75.8627 179.34 75.6027 179.587 75.2827 179.8C74.9627 180 74.576 180.133 74.1227 180.2C74.656 180.24 75.116 180.347 75.5027 180.52C75.9027 180.693 76.2293 180.913 76.4827 181.18C76.736 181.447 76.9227 181.747 77.0427 182.08C77.176 182.4 77.2427 182.727 77.2427 183.06C77.2427 183.513 77.156 183.947 76.9827 184.36C76.8227 184.76 76.5827 185.107 76.2627 185.4C75.9427 185.707 75.536 185.947 75.0427 186.12C74.5627 186.293 74.0027 186.367 73.3627 186.34C72.6293 186.327 71.936 186.173 71.2827 185.88C70.6293 185.587 70.1627 185.2 69.8827 184.72C69.816 184.613 69.796 184.5 69.8227 184.38C69.8627 184.26 69.9293 184.167 70.0227 184.1C70.116 184.02 70.216 183.98 70.3227 183.98C70.4427 183.98 70.556 184.04 70.6627 184.16C70.9293 184.52 71.3027 184.827 71.7827 185.08C72.276 185.333 72.7827 185.46 73.3027 185.46C74.2627 185.487 74.9893 185.253 75.4827 184.76C75.9893 184.267 76.2427 183.7 76.2427 183.06C76.2427 182.447 76.0293 181.953 75.6027 181.58C75.176 181.207 74.5627 180.96 73.7627 180.84C73.6427 180.827 73.5093 180.82 73.3627 180.82C73.2293 180.807 73.0893 180.793 72.9427 180.78C72.7827 180.767 72.6293 180.753 72.4827 180.74C72.3493 180.727 72.236 180.707 72.1427 180.68C72.0227 180.667 71.936 180.62 71.8827 180.54C71.8293 180.447 71.8027 180.34 71.8027 180.22C71.8027 180.06 71.836 179.94 71.9027 179.86C71.9693 179.767 72.0627 179.713 72.1827 179.7C72.316 179.7 72.5493 179.687 72.8827 179.66C73.216 179.633 73.4627 179.6 73.6227 179.56C74.2627 179.44 74.756 179.18 75.1027 178.78C75.4627 178.367 75.6427 177.873 75.6427 177.3C75.6427 176.687 75.396 176.227 74.9027 175.92C74.4093 175.6 73.876 175.44 73.3027 175.44C72.8093 175.44 72.3493 175.547 71.9227 175.76C71.5093 175.973 71.1627 176.26 70.8827 176.62C70.7893 176.74 70.6827 176.8 70.5627 176.8C70.4427 176.8 70.336 176.767 70.2427 176.7C70.1493 176.633 70.0827 176.547 70.0427 176.44C70.0027 176.333 70.016 176.227 70.0827 176.12C70.4027 175.6 70.8493 175.22 71.4227 174.98C72.0093 174.727 72.6493 174.6 73.3427 174.6C74.3027 174.6 75.0893 174.84 75.7027 175.32C76.3293 175.787 76.6427 176.46 76.6427 177.34Z" fill="white" style="mix-blend-mode:lighten" shape-rendering="crispEdges"/>
</g>
<g filter="url(#filter13_d_322_705)">
<path d="M72.1376 404.84C72.0576 405.32 71.9509 405.793 71.8176 406.26C71.6976 406.727 71.5576 407.167 71.3976 407.58C71.9176 408.087 72.4976 408.693 73.1376 409.4C73.7909 410.093 74.3776 410.807 74.8976 411.54C74.9509 411.647 74.9576 411.753 74.9176 411.86C74.8909 411.953 74.8376 412.033 74.7576 412.1C74.6776 412.167 74.5843 412.207 74.4776 412.22C74.3843 412.233 74.3043 412.193 74.2376 412.1C73.5976 411.313 72.9976 410.647 72.4376 410.1C71.8909 409.54 71.3776 409.053 70.8976 408.64C70.4576 409.453 69.9709 410.173 69.4376 410.8C68.9043 411.427 68.4043 411.913 67.9376 412.26C67.8176 412.353 67.6776 412.4 67.5176 412.4C67.3709 412.4 67.2509 412.367 67.1576 412.3C67.0376 412.233 66.9709 412.16 66.9576 412.08C66.9576 412 67.0176 411.913 67.1376 411.82C68.1509 410.94 68.9709 409.973 69.5976 408.92C70.2376 407.853 70.7043 406.673 70.9976 405.38C71.0509 405.087 71.0843 404.813 71.0976 404.56C71.1243 404.293 71.1509 404.067 71.1776 403.88C71.1909 403.693 71.2109 403.54 71.2376 403.42C71.2643 403.3 71.3243 403.227 71.4176 403.2C71.5376 403.16 71.6443 403.193 71.7376 403.3C71.8443 403.393 71.9309 403.527 71.9976 403.7C72.0643 403.86 72.1043 404.047 72.1176 404.26C72.1443 404.473 72.1509 404.667 72.1376 404.84ZM77.2776 400.54C77.3976 400.433 77.5309 400.407 77.6776 400.46C77.8376 400.513 77.9776 400.6 78.0976 400.72C78.3509 401.013 78.5509 401.333 78.6976 401.68C78.8576 402.027 78.9376 402.38 78.9376 402.74L78.7776 415.04C78.7643 415.24 78.7443 415.453 78.7176 415.68C78.7043 415.893 78.6776 416.087 78.6376 416.26C78.5843 416.447 78.5176 416.6 78.4376 416.72C78.3576 416.853 78.2576 416.927 78.1376 416.94C78.0709 416.953 78.0109 416.907 77.9576 416.8C77.9176 416.707 77.8776 416.58 77.8376 416.42C77.7976 416.273 77.7709 416.113 77.7576 415.94C77.7443 415.767 77.7376 415.607 77.7376 415.46L77.7776 407.6L75.4976 407.88C75.0709 407.947 74.7776 407.927 74.6176 407.82C74.4576 407.713 74.3909 407.54 74.4176 407.3C74.4176 407.18 74.4509 407.093 74.5176 407.04C74.5843 406.973 74.6709 406.94 74.7776 406.94C75.1776 406.94 75.6176 406.927 76.0976 406.9C76.5909 406.873 77.1576 406.82 77.7976 406.74L77.8176 403.34C77.8176 403.14 77.7976 402.893 77.7576 402.6C77.7309 402.293 77.6643 402.033 77.5576 401.82C77.4909 401.7 77.4243 401.58 77.3576 401.46C77.3043 401.34 77.2576 401.22 77.2176 401.1C77.1776 400.98 77.1576 400.873 77.1576 400.78C77.1709 400.687 77.2109 400.607 77.2776 400.54Z" fill="white" style="mix-blend-mode:lighten" shape-rendering="crispEdges"/>
</g>
<g filter="url(#filter14_d_322_705)">
<path d="M73.4227 136.58C74.5027 136.58 75.316 136.84 75.8627 137.36C76.4227 137.88 76.7027 138.473 76.7027 139.14C76.7027 139.647 76.5493 140.153 76.2427 140.66C75.936 141.153 75.436 141.56 74.7427 141.88C74.6627 141.92 74.5827 141.96 74.5027 142C74.4227 142.04 74.3493 142.073 74.2827 142.1C74.3493 142.14 74.416 142.18 74.4827 142.22C74.5627 142.247 74.636 142.28 74.7027 142.32C74.7827 142.347 74.856 142.38 74.9227 142.42C74.9893 142.447 75.0627 142.473 75.1427 142.5C75.796 142.82 76.3227 143.22 76.7227 143.7C77.1227 144.167 77.3227 144.753 77.3227 145.46C77.3227 146.3 76.956 146.987 76.2227 147.52C75.5027 148.053 74.5693 148.32 73.4227 148.32C72.3827 148.32 71.496 148.073 70.7627 147.58C70.0427 147.087 69.6827 146.34 69.6827 145.34C69.6827 144.687 69.9093 144.08 70.3627 143.52C70.8293 142.96 71.3893 142.533 72.0427 142.24C72.1093 142.213 72.176 142.187 72.2427 142.16C72.3093 142.133 72.376 142.1 72.4427 142.06C71.9093 141.82 71.4093 141.493 70.9427 141.08C70.476 140.667 70.2293 140.107 70.2027 139.4C70.1627 138.56 70.4427 137.88 71.0427 137.36C71.6427 136.84 72.436 136.58 73.4227 136.58ZM73.4027 142.52C73.3627 142.547 73.3227 142.567 73.2827 142.58C73.2427 142.593 73.2027 142.607 73.1627 142.62C73.1227 142.633 73.0827 142.653 73.0427 142.68C73.016 142.693 72.9827 142.707 72.9427 142.72C72.7427 142.827 72.5093 142.96 72.2427 143.12C71.976 143.267 71.7293 143.453 71.5027 143.68C71.276 143.893 71.0827 144.147 70.9227 144.44C70.7627 144.72 70.6827 145.033 70.6827 145.38C70.6827 145.993 70.916 146.5 71.3827 146.9C71.8493 147.3 72.536 147.5 73.4427 147.5C74.2827 147.5 74.9693 147.307 75.5027 146.92C76.0493 146.52 76.3227 145.92 76.3227 145.12C76.3227 144.68 76.1293 144.267 75.7427 143.88C75.356 143.493 74.9293 143.193 74.4627 142.98C74.3693 142.94 74.276 142.907 74.1827 142.88C74.0893 142.84 74.0027 142.8 73.9227 142.76C73.8293 142.72 73.736 142.68 73.6427 142.64C73.5627 142.6 73.4827 142.56 73.4027 142.52ZM73.4027 137.38C73.1093 137.38 72.8227 137.42 72.5427 137.5C72.2627 137.58 72.0227 137.707 71.8227 137.88C71.6093 138.04 71.4427 138.253 71.3227 138.52C71.2027 138.773 71.1627 139.08 71.2027 139.44C71.216 139.747 71.296 140.02 71.4427 140.26C71.6027 140.487 71.7893 140.687 72.0027 140.86C72.2027 141.033 72.4227 141.187 72.6627 141.32C72.9027 141.44 73.1293 141.547 73.3427 141.64C73.3427 141.64 73.3493 141.647 73.3627 141.66C73.376 141.66 73.3827 141.66 73.3827 141.66C73.4627 141.633 73.5427 141.6 73.6227 141.56C73.7027 141.52 73.796 141.467 73.9027 141.4C74.356 141.187 74.7693 140.893 75.1427 140.52C75.516 140.147 75.7027 139.7 75.7027 139.18C75.7027 138.527 75.4693 138.067 75.0027 137.8C74.536 137.52 74.0027 137.38 73.4027 137.38Z" fill="white" style="mix-blend-mode:lighten" shape-rendering="crispEdges"/>
</g>
<g filter="url(#filter15_d_322_705)">
<path d="M75.2395 253.58C75.2395 254.007 75.1595 254.413 74.9995 254.8C74.8529 255.187 74.6329 255.527 74.3395 255.82C74.0462 256.113 73.6729 256.347 73.2195 256.52C72.7795 256.693 72.2729 256.78 71.6995 256.78C71.0995 256.78 70.5729 256.693 70.1195 256.52C69.6795 256.347 69.3129 256.113 69.0195 255.82C68.7262 255.527 68.5062 255.187 68.3595 254.8C68.2262 254.413 68.1595 254.007 68.1595 253.58C68.1595 252.727 68.4529 251.98 69.0395 251.34C69.6262 250.7 70.5129 250.38 71.6995 250.38C72.8729 250.38 73.7529 250.7 74.3395 251.34C74.9395 251.98 75.2395 252.727 75.2395 253.58ZM74.2195 253.6C74.2195 253 74.0129 252.467 73.5995 252C73.1995 251.533 72.5595 251.3 71.6795 251.3C70.7995 251.3 70.1595 251.533 69.7595 252C69.3729 252.467 69.1795 253 69.1795 253.6C69.1795 254.187 69.3729 254.72 69.7595 255.2C70.1595 255.667 70.8062 255.887 71.6995 255.86C72.5795 255.86 73.2195 255.633 73.6195 255.18C74.0195 254.713 74.2195 254.187 74.2195 253.6ZM67.8995 258.76C69.0995 258.72 70.3462 258.66 71.6395 258.58C72.9462 258.5 74.3795 258.393 75.9395 258.26C76.0195 258.26 76.0995 258.26 76.1795 258.26C76.2595 258.247 76.3329 258.233 76.3995 258.22C76.4795 258.207 76.5529 258.2 76.6195 258.2C76.6862 258.187 76.7462 258.18 76.7995 258.18C76.9729 258.18 77.0995 258.213 77.1795 258.28C77.2595 258.347 77.3062 258.453 77.3195 258.6C77.3195 258.8 77.2795 258.94 77.1995 259.02C77.1195 259.087 77.0329 259.127 76.9395 259.14C76.8995 259.153 76.8529 259.16 76.7995 259.16C76.7462 259.147 76.6862 259.14 76.6195 259.14C76.5395 259.127 76.4462 259.12 76.3395 259.12C76.2329 259.107 76.0995 259.107 75.9395 259.12C75.4195 259.173 74.8529 259.227 74.2395 259.28C73.6262 259.32 72.9995 259.36 72.3595 259.4V262.76C72.3595 263.44 72.3062 263.933 72.1995 264.24C72.0929 264.547 71.9662 264.7 71.8195 264.7C71.6595 264.713 71.5395 264.56 71.4595 264.24C71.3929 263.92 71.3595 263.547 71.3595 263.12L71.2995 259.48C70.5929 259.533 69.8995 259.573 69.2195 259.6C68.5529 259.627 67.9262 259.64 67.3395 259.64C67.1662 259.64 67.0129 259.607 66.8795 259.54C66.7595 259.46 66.6595 259.36 66.5795 259.24C66.4995 259.133 66.4462 259.027 66.4195 258.92C66.4062 258.813 66.4329 258.727 66.4995 258.66C66.5395 258.62 66.5995 258.607 66.6795 258.62C66.7729 258.62 66.8862 258.633 67.0195 258.66C67.1395 258.687 67.2729 258.713 67.4195 258.74C67.5662 258.767 67.7262 258.773 67.8995 258.76ZM77.8995 248.52C78.0195 248.427 78.1529 248.407 78.2995 248.46C78.4595 248.5 78.5995 248.587 78.7195 248.72C78.9729 249 79.1729 249.313 79.3195 249.66C79.4795 250.007 79.5595 250.36 79.5595 250.72L79.3995 263.08C79.3862 263.28 79.3662 263.487 79.3395 263.7C79.3262 263.913 79.2995 264.113 79.2595 264.3C79.2062 264.487 79.1395 264.64 79.0595 264.76C78.9929 264.893 78.8995 264.967 78.7795 264.98C78.7129 264.993 78.6529 264.947 78.5995 264.84C78.5462 264.733 78.4995 264.6 78.4595 264.44C78.4195 264.293 78.3929 264.133 78.3795 263.96C78.3662 263.787 78.3595 263.627 78.3595 263.48L78.3795 261.98L75.7995 262.22C75.3729 262.287 75.0795 262.267 74.9195 262.16C74.7595 262.053 74.6929 261.88 74.7195 261.64C74.7195 261.52 74.7595 261.433 74.8395 261.38C74.9195 261.327 75.0129 261.3 75.1195 261.3C75.3329 261.3 75.5262 261.3 75.6995 261.3C75.8862 261.3 76.0862 261.293 76.2995 261.28C76.4729 261.28 76.6529 261.273 76.8395 261.26C77.0262 261.247 77.2129 261.233 77.3995 261.22C77.5729 261.22 77.7395 261.213 77.8995 261.2C78.0729 261.187 78.2329 261.167 78.3795 261.14L78.4395 251.32C78.4395 251.12 78.4195 250.873 78.3795 250.58C78.3529 250.273 78.2862 250.013 78.1795 249.8C78.1129 249.68 78.0462 249.56 77.9795 249.44C77.9262 249.32 77.8795 249.2 77.8395 249.08C77.7995 248.96 77.7795 248.853 77.7795 248.76C77.7929 248.667 77.8329 248.587 77.8995 248.52Z" fill="white" style="mix-blend-mode:lighten" shape-rendering="crispEdges"/>
</g>
<g filter="url(#filter16_d_322_705)">
<path d="M66.8595 369.92C66.8462 368.76 67.1262 367.84 67.6995 367.16C68.2862 366.48 69.0795 366.14 70.0795 366.14C70.9995 366.14 71.7395 366.433 72.2995 367.02C72.8595 367.593 73.1862 368.38 73.2795 369.38C73.4395 369.38 73.5995 369.38 73.7595 369.38C73.9195 369.367 74.0862 369.36 74.2595 369.36C74.4329 369.347 74.6062 369.333 74.7795 369.32C74.9529 369.307 75.1329 369.287 75.3195 369.26L75.3395 367.14C75.3395 366.94 75.3195 366.693 75.2795 366.4C75.2395 366.093 75.1662 365.833 75.0595 365.62C74.9395 365.38 74.8329 365.14 74.7395 364.9C74.6462 364.647 74.6662 364.46 74.7995 364.34C74.9062 364.233 75.0329 364.207 75.1795 364.26C75.3262 364.313 75.4595 364.4 75.5795 364.52C75.8195 364.8 76.0129 365.12 76.1595 365.48C76.3195 365.827 76.3995 366.18 76.3995 366.54L76.2395 375.5C76.2262 375.7 76.2062 375.907 76.1795 376.12C76.1662 376.333 76.1395 376.533 76.0995 376.72C76.0595 376.907 75.9995 377.067 75.9195 377.2C75.8395 377.32 75.7395 377.38 75.6195 377.38C75.5529 377.393 75.4995 377.347 75.4595 377.24C75.4195 377.133 75.3795 377.007 75.3395 376.86C75.3129 376.713 75.2929 376.553 75.2795 376.38C75.2662 376.207 75.2595 376.047 75.2595 375.9L75.3195 370L73.5595 370.2C73.5062 370.213 73.4595 370.22 73.4195 370.22C73.3795 370.22 73.3395 370.22 73.2995 370.22C73.2329 371.3 72.9129 372.153 72.3395 372.78C71.7795 373.393 71.0262 373.7 70.0795 373.7C69.0795 373.7 68.2929 373.36 67.7195 372.68C67.1462 372 66.8595 371.08 66.8595 369.92ZM67.8395 369.96C67.8395 370.333 67.8795 370.693 67.9595 371.04C68.0395 371.373 68.1662 371.667 68.3395 371.92C68.5129 372.187 68.7395 372.4 69.0195 372.56C69.2995 372.707 69.6395 372.78 70.0395 372.78C70.4395 372.78 70.7795 372.707 71.0595 372.56C71.3529 372.4 71.5929 372.187 71.7795 371.92C71.9662 371.667 72.0995 371.373 72.1795 371.04C72.2729 370.693 72.3195 370.333 72.3195 369.96C72.3195 369.2 72.1395 368.527 71.7795 367.94C71.4195 367.353 70.8395 367.06 70.0395 367.06C69.6395 367.06 69.2995 367.14 69.0195 367.3C68.7395 367.46 68.5129 367.673 68.3395 367.94C68.1662 368.22 68.0395 368.533 67.9595 368.88C67.8795 369.227 67.8395 369.587 67.8395 369.96ZM77.9795 362.54C78.0995 362.447 78.2329 362.427 78.3795 362.48C78.5262 362.533 78.6595 362.62 78.7795 362.74C79.0195 363.02 79.2129 363.333 79.3595 363.68C79.5195 364.027 79.5995 364.387 79.5995 364.76L79.4595 377.06C79.4462 377.26 79.4262 377.467 79.3995 377.68C79.3862 377.893 79.3529 378.093 79.2995 378.28C79.2462 378.453 79.1795 378.6 79.0995 378.72C79.0195 378.853 78.9195 378.927 78.7995 378.94C78.7329 378.953 78.6795 378.907 78.6395 378.8C78.5995 378.693 78.5662 378.567 78.5395 378.42C78.5129 378.273 78.4929 378.113 78.4795 377.94C78.4795 377.767 78.4795 377.613 78.4795 377.48L78.5395 365.34C78.5395 365.14 78.5195 364.893 78.4795 364.6C78.4395 364.293 78.3595 364.033 78.2395 363.82C78.1195 363.593 78.0129 363.353 77.9195 363.1C77.8262 362.847 77.8462 362.66 77.9795 362.54Z" fill="white" style="mix-blend-mode:lighten" shape-rendering="crispEdges"/>
</g>
<g filter="url(#filter17_d_322_705)">
<path d="M68.7996 72.08C69.5729 72.0933 70.3129 72.06 71.0196 71.98C71.7263 71.9 72.4729 71.7733 73.2596 71.6C73.3929 71.5733 73.4929 71.5933 73.5596 71.66C73.6396 71.7267 73.6929 71.8067 73.7196 71.9C73.7329 72.0067 73.7129 72.1067 73.6596 72.2C73.6196 72.2933 73.5396 72.36 73.4196 72.4C72.8729 72.5733 72.1796 72.72 71.3396 72.84C70.4996 72.9467 69.6396 72.98 68.7596 72.94C68.4529 72.9267 68.2129 72.84 68.0396 72.68C67.8663 72.5067 67.7796 72.22 67.7796 71.82C67.7796 71.5667 67.7729 71.2067 67.7596 70.74C67.7596 70.2733 67.7463 69.7867 67.7196 69.28C67.7063 68.7867 67.6796 68.3267 67.6396 67.9C67.6129 67.46 67.5729 67.14 67.5196 66.94C67.4796 66.82 67.4329 66.7 67.3796 66.58C67.3396 66.4467 67.2996 66.3267 67.2596 66.22C67.2196 66.1 67.1863 65.9933 67.1596 65.9C67.1463 65.8067 67.1596 65.7267 67.1996 65.66C67.2396 65.5667 67.2996 65.4933 67.3796 65.44C67.4596 65.3867 67.5996 65.36 67.7996 65.36C67.9863 65.3733 68.1663 65.38 68.3396 65.38C68.5263 65.38 68.7196 65.38 68.9196 65.38C69.1329 65.38 69.3863 65.3667 69.6796 65.34C69.9863 65.3133 70.2929 65.28 70.5996 65.24C70.9196 65.2133 71.2196 65.1867 71.4996 65.16C71.7796 65.12 72.0196 65.0933 72.2196 65.08C72.5396 65.0667 72.7529 65.1 72.8596 65.18C72.9796 65.26 73.0463 65.38 73.0596 65.54C73.0596 65.7267 73.0063 65.86 72.8996 65.94C72.8063 66.02 72.6063 66.06 72.2996 66.06C71.9263 66.0867 71.5863 66.1067 71.2796 66.12C70.9729 66.1333 70.6729 66.1467 70.3796 66.16C70.0863 66.1733 69.7796 66.1933 69.4596 66.22C69.1529 66.2333 68.8063 66.2467 68.4196 66.26C68.4863 66.6067 68.5396 67.04 68.5796 67.56C68.6329 68.08 68.6729 68.6133 68.6996 69.16C68.7396 69.72 68.7663 70.26 68.7796 70.78C68.7929 71.3 68.7996 71.7333 68.7996 72.08ZM76.2396 68.36C76.6396 68.3467 76.9729 68.3333 77.2396 68.32C77.5196 68.2933 77.7396 68.2667 77.8996 68.24C78.0196 68.24 78.1329 68.24 78.2396 68.24C78.3463 68.2267 78.4396 68.2133 78.5196 68.2L78.5396 64.34C78.5396 64.14 78.5196 63.8933 78.4796 63.6C78.4396 63.2933 78.3596 63.0333 78.2396 62.82C78.1196 62.5933 78.0129 62.3533 77.9196 62.1C77.8263 61.8467 77.8463 61.66 77.9796 61.54C78.0996 61.4467 78.2329 61.4267 78.3796 61.48C78.5263 61.5333 78.6596 61.62 78.7796 61.74C79.0196 62.02 79.2129 62.3333 79.3596 62.68C79.5196 63.0267 79.5996 63.3867 79.5996 63.76L79.4596 76.06C79.4463 76.26 79.4263 76.4667 79.3996 76.68C79.3863 76.8933 79.3529 77.0933 79.2996 77.28C79.2463 77.4533 79.1796 77.6 79.0996 77.72C79.0196 77.8533 78.9196 77.9267 78.7996 77.94C78.7329 77.9533 78.6796 77.9067 78.6396 77.8C78.5996 77.6933 78.5663 77.5667 78.5396 77.42C78.5129 77.2733 78.4929 77.1133 78.4796 76.94C78.4796 76.7667 78.4796 76.6133 78.4796 76.48L78.4996 69.12C78.4596 69.12 78.4129 69.12 78.3596 69.12C78.3196 69.12 78.2796 69.1133 78.2396 69.1C77.8929 69.1 77.5529 69.1067 77.2196 69.12C76.8863 69.1333 76.5596 69.1467 76.2396 69.16L76.1396 74.5C76.1263 74.7 76.1063 74.9067 76.0796 75.12C76.0663 75.3333 76.0396 75.5333 75.9996 75.72C75.9596 75.9067 75.8996 76.0667 75.8196 76.2C75.7396 76.32 75.6396 76.38 75.5196 76.38C75.4529 76.3933 75.3996 76.3467 75.3596 76.24C75.3196 76.1333 75.2796 76.0067 75.2396 75.86C75.2129 75.7133 75.1929 75.5533 75.1796 75.38C75.1663 75.2067 75.1596 75.0467 75.1596 74.9L75.2396 66.14C75.2396 65.94 75.2196 65.6933 75.1796 65.4C75.1396 65.0933 75.0663 64.8333 74.9596 64.62C74.8396 64.38 74.7329 64.14 74.6396 63.9C74.5463 63.6467 74.5663 63.46 74.6996 63.34C74.8063 63.2333 74.9329 63.2067 75.0796 63.26C75.2263 63.3133 75.3596 63.4 75.4796 63.52C75.7196 63.8 75.9129 64.12 76.0596 64.48C76.2196 64.8267 76.2996 65.18 76.2996 65.54L76.2396 68.36Z" fill="white" style="mix-blend-mode:lighten" shape-rendering="crispEdges"/>
</g>
</g>
<defs>
<filter id="filter0_dd_322_705" x="0" y="0" width="213.235" height="654" filterUnits="userSpaceOnUse" color-interpolation-filters="sRGB">
<feFlood flood-opacity="0" result="BackgroundImageFix"/>
<feColorMatrix in="SourceAlpha" type="matrix" values="0 0 0 0 0 0 0 0 0 0 0 0 0 0 0 0 0 0 127 0" result="hardAlpha"/>
<feOffset/>
<feGaussianBlur stdDeviation="25"/>
<feComposite in2="hardAlpha" operator="out"/>
<feColorMatrix type="matrix" values="0 0 0 0 1 0 0 0 0 1 0 0 0 0 1 0 0 0 0.25 0"/>
<feBlend mode="normal" in2="BackgroundImageFix" result="effect1_dropShadow_322_705"/>
<feColorMatrix in="SourceAlpha" type="matrix" values="0 0 0 0 0 0 0 0 0 0 0 0 0 0 0 0 0 0 127 0" result="hardAlpha"/>
<feOffset dy="4"/>
<feGaussianBlur stdDeviation="5"/>
<feComposite in2="hardAlpha" operator="out"/>
<feColorMatrix type="matrix" values="0 0 0 0 1 0 0 0 0 1 0 0 0 0 1 0 0 0 0.25 0"/>
<feBlend mode="normal" in2="effect1_dropShadow_322_705" result="effect2_dropShadow_322_705"/>
<feBlend mode="normal" in="SourceGraphic" in2="effect2_dropShadow_322_705" result="shape"/>
</filter>
<filter id="filter1_d_322_705" x="122.418" y="234.4" width="32.52" height="37.1401" filterUnits="userSpaceOnUse" color-interpolation-filters="sRGB">
<feFlood flood-opacity="0" result="BackgroundImageFix"/>
<feColorMatrix in="SourceAlpha" type="matrix" values="0 0 0 0 0 0 0 0 0 0 0 0 0 0 0 0 0 0 127 0" result="hardAlpha"/>
<feOffset/>
<feGaussianBlur stdDeviation="5"/>
<feComposite in2="hardAlpha" operator="out"/>
<feColorMatrix type="matrix" values="0 0 0 0 0.854167 0 0 0 0 0.854167 0 0 0 0 0.854167 0 0 0 1 0"/>
<feBlend mode="normal" in2="BackgroundImageFix" result="effect1_dropShadow_322_705"/>
<feBlend mode="normal" in="SourceGraphic" in2="effect1_dropShadow_322_705" result="shape"/>
</filter>
<filter id="filter2_d_322_705" x="121.802" y="424.38" width="35.76" height="36.9402" filterUnits="userSpaceOnUse" color-interpolation-filters="sRGB">
<feFlood flood-opacity="0" result="BackgroundImageFix"/>
<feColorMatrix in="SourceAlpha" type="matrix" values="0 0 0 0 0 0 0 0 0 0 0 0 0 0 0 0 0 0 127 0" result="hardAlpha"/>
<feOffset/>
<feGaussianBlur stdDeviation="5"/>
<feComposite in2="hardAlpha" operator="out"/>
<feColorMatrix type="matrix" values="0 0 0 0 0.854167 0 0 0 0 0.854167 0 0 0 0 0.854167 0 0 0 1 0"/>
<feBlend mode="normal" in2="BackgroundImageFix" result="effect1_dropShadow_322_705"/>
<feBlend mode="normal" in="SourceGraphic" in2="effect1_dropShadow_322_705" result="shape"/>
</filter>
<filter id="filter3_d_322_705" x="121.637" y="501.32" width="35.5" height="36.04" filterUnits="userSpaceOnUse" color-interpolation-filters="sRGB">
<feFlood flood-opacity="0" result="BackgroundImageFix"/>
<feColorMatrix in="SourceAlpha" type="matrix" values="0 0 0 0 0 0 0 0 0 0 0 0 0 0 0 0 0 0 127 0" result="hardAlpha"/>
<feOffset/>
<feGaussianBlur stdDeviation="5"/>
<feComposite in2="hardAlpha" operator="out"/>
<feColorMatrix type="matrix" values="0 0 0 0 0.854167 0 0 0 0 0.854167 0 0 0 0 0.854167 0 0 0 1 0"/>
<feBlend mode="normal" in2="BackgroundImageFix" result="effect1_dropShadow_322_705"/>
<feBlend mode="normal" in="SourceGraphic" in2="effect1_dropShadow_322_705" result="shape"/>
</filter>
<filter id="filter4_d_322_705" x="120.2" y="309.14" width="38.42" height="38.26" filterUnits="userSpaceOnUse" color-interpolation-filters="sRGB">
<feFlood flood-opacity="0" result="BackgroundImageFix"/>
<feColorMatrix in="SourceAlpha" type="matrix" values="0 0 0 0 0 0 0 0 0 0 0 0 0 0 0 0 0 0 127 0" result="hardAlpha"/>
<feOffset/>
<feGaussianBlur stdDeviation="5"/>
<feComposite in2="hardAlpha" operator="out"/>
<feColorMatrix type="matrix" values="0 0 0 0 0.854167 0 0 0 0 0.854167 0 0 0 0 0.854167 0 0 0 1 0"/>
<feBlend mode="normal" in2="BackgroundImageFix" result="effect1_dropShadow_322_705"/>
<feBlend mode="normal" in="SourceGraphic" in2="effect1_dropShadow_322_705" result="shape"/>
</filter>
<filter id="filter5_d_322_705" x="120.2" y="347.14" width="38.42" height="38.26" filterUnits="userSpaceOnUse" color-interpolation-filters="sRGB">
<feFlood flood-opacity="0" result="BackgroundImageFix"/>
<feColorMatrix in="SourceAlpha" type="matrix" values="0 0 0 0 0 0 0 0 0 0 0 0 0 0 0 0 0 0 127 0" result="hardAlpha"/>
<feOffset/>
<feGaussianBlur stdDeviation="5"/>
<feComposite in2="hardAlpha" operator="out"/>
<feColorMatrix type="matrix" values="0 0 0 0 0.854167 0 0 0 0 0.854167 0 0 0 0 0.854167 0 0 0 1 0"/>
<feBlend mode="normal" in2="BackgroundImageFix" result="effect1_dropShadow_322_705"/>
<feBlend mode="normal" in="SourceGraphic" in2="effect1_dropShadow_322_705" result="shape"/>
</filter>
<filter id="filter6_d_322_705" x="122.418" y="272.4" width="32.52" height="37.1401" filterUnits="userSpaceOnUse" color-interpolation-filters="sRGB">
<feFlood flood-opacity="0" result="BackgroundImageFix"/>
<feColorMatrix in="SourceAlpha" type="matrix" values="0 0 0 0 0 0 0 0 0 0 0 0 0 0 0 0 0 0 127 0" result="hardAlpha"/>
<feOffset/>
<feGaussianBlur stdDeviation="5"/>
<feComposite in2="hardAlpha" operator="out"/>
<feColorMatrix type="matrix" values="0 0 0 0 0.854167 0 0 0 0 0.854167 0 0 0 0 0.854167 0 0 0 1 0"/>
<feBlend mode="normal" in2="BackgroundImageFix" result="effect1_dropShadow_322_705"/>
<feBlend mode="normal" in="SourceGraphic" in2="effect1_dropShadow_322_705" result="shape"/>
</filter>
<filter id="filter7_d_322_705" x="121.637" y="463.66" width="35.5" height="35.8801" filterUnits="userSpaceOnUse" color-interpolation-filters="sRGB">
<feFlood flood-opacity="0" result="BackgroundImageFix"/>
<feColorMatrix in="SourceAlpha" type="matrix" values="0 0 0 0 0 0 0 0 0 0 0 0 0 0 0 0 0 0 127 0" result="hardAlpha"/>
<feOffset/>
<feGaussianBlur stdDeviation="5"/>
<feComposite in2="hardAlpha" operator="out"/>
<feColorMatrix type="matrix" values="0 0 0 0 0.854167 0 0 0 0 0.854167 0 0 0 0 0.854167 0 0 0 1 0"/>
<feBlend mode="normal" in2="BackgroundImageFix" result="effect1_dropShadow_322_705"/>
<feBlend mode="normal" in="SourceGraphic" in2="effect1_dropShadow_322_705" result="shape"/>
</filter>
<filter id="filter8_d_322_705" x="123.458" y="538.38" width="31.48" height="36.5801" filterUnits="userSpaceOnUse" color-interpolation-filters="sRGB">
<feFlood flood-opacity="0" result="BackgroundImageFix"/>
<feColorMatrix in="SourceAlpha" type="matrix" values="0 0 0 0 0 0 0 0 0 0 0 0 0 0 0 0 0 0 127 0" result="hardAlpha"/>
<feOffset/>
<feGaussianBlur stdDeviation="5"/>
<feComposite in2="hardAlpha" operator="out"/>
<feColorMatrix type="matrix" values="0 0 0 0 0.854167 0 0 0 0 0.854167 0 0 0 0 0.854167 0 0 0 1 0"/>
<feBlend mode="normal" in2="BackgroundImageFix" result="effect1_dropShadow_322_705"/>
<feBlend mode="normal" in="SourceGraphic" in2="effect1_dropShadow_322_705" result="shape"/>
</filter>
<filter id="filter9_d_322_705" x="55.6368" y="88.4199" width="35.5" height="34.72" filterUnits="userSpaceOnUse" color-interpolation-filters="sRGB">
<feFlood flood-opacity="0" result="BackgroundImageFix"/>
<feColorMatrix in="SourceAlpha" type="matrix" values="0 0 0 0 0 0 0 0 0 0 0 0 0 0 0 0 0 0 127 0" result="hardAlpha"/>
<feOffset/>
<feGaussianBlur stdDeviation="5"/>
<feComposite in2="hardAlpha" operator="out"/>
<feColorMatrix type="matrix" values="0 0 0 0 0.854167 0 0 0 0 0.854167 0 0 0 0 0.854167 0 0 0 1 0"/>
<feBlend mode="normal" in2="BackgroundImageFix" result="effect1_dropShadow_322_705"/>
<feBlend mode="normal" in="SourceGraphic" in2="effect1_dropShadow_322_705" result="shape"/>
</filter>
<filter id="filter10_d_322_705" x="57.0619" y="200.38" width="34.06" height="36.5801" filterUnits="userSpaceOnUse" color-interpolation-filters="sRGB">
<feFlood flood-opacity="0" result="BackgroundImageFix"/>
<feColorMatrix in="SourceAlpha" type="matrix" values="0 0 0 0 0 0 0 0 0 0 0 0 0 0 0 0 0 0 127 0" result="hardAlpha"/>
<feOffset/>
<feGaussianBlur stdDeviation="5"/>
<feComposite in2="hardAlpha" operator="out"/>
<feColorMatrix type="matrix" values="0 0 0 0 0.854167 0 0 0 0 0.854167 0 0 0 0 0.854167 0 0 0 1 0"/>
<feBlend mode="normal" in2="BackgroundImageFix" result="effect1_dropShadow_322_705"/>
<feBlend mode="normal" in="SourceGraphic" in2="effect1_dropShadow_322_705" result="shape"/>
</filter>
<filter id="filter11_d_322_705" x="56.5219" y="314.4" width="34.6" height="36.9402" filterUnits="userSpaceOnUse" color-interpolation-filters="sRGB">
<feFlood flood-opacity="0" result="BackgroundImageFix"/>
<feColorMatrix in="SourceAlpha" type="matrix" values="0 0 0 0 0 0 0 0 0 0 0 0 0 0 0 0 0 0 127 0" result="hardAlpha"/>
<feOffset/>
<feGaussianBlur stdDeviation="5"/>
<feComposite in2="hardAlpha" operator="out"/>
<feColorMatrix type="matrix" values="0 0 0 0 0.854167 0 0 0 0 0.854167 0 0 0 0 0.854167 0 0 0 1 0"/>
<feBlend mode="normal" in2="BackgroundImageFix" result="effect1_dropShadow_322_705"/>
<feBlend mode="normal" in="SourceGraphic" in2="effect1_dropShadow_322_705" result="shape"/>
</filter>
<filter id="filter12_d_322_705" x="59.7827" y="164.6" width="27.46" height="31.7798" filterUnits="userSpaceOnUse" color-interpolation-filters="sRGB">
<feFlood flood-opacity="0" result="BackgroundImageFix"/>
<feColorMatrix in="SourceAlpha" type="matrix" values="0 0 0 0 0 0 0 0 0 0 0 0 0 0 0 0 0 0 127 0" result="hardAlpha"/>
<feOffset/>
<feGaussianBlur stdDeviation="5"/>
<feComposite in2="hardAlpha" operator="out"/>
<feColorMatrix type="matrix" values="0 0 0 0 0.854167 0 0 0 0 0.854167 0 0 0 0 0.854167 0 0 0 1 0"/>
<feBlend mode="normal" in2="BackgroundImageFix" result="effect1_dropShadow_322_705"/>
<feBlend mode="normal" in="SourceGraphic" in2="effect1_dropShadow_322_705" result="shape"/>
</filter>
<filter id="filter13_d_322_705" x="56.9576" y="390.38" width="31.98" height="36.5801" filterUnits="userSpaceOnUse" color-interpolation-filters="sRGB">
<feFlood flood-opacity="0" result="BackgroundImageFix"/>
<feColorMatrix in="SourceAlpha" type="matrix" values="0 0 0 0 0 0 0 0 0 0 0 0 0 0 0 0 0 0 127 0" result="hardAlpha"/>
<feOffset/>
<feGaussianBlur stdDeviation="5"/>
<feComposite in2="hardAlpha" operator="out"/>
<feColorMatrix type="matrix" values="0 0 0 0 0.854167 0 0 0 0 0.854167 0 0 0 0 0.854167 0 0 0 1 0"/>
<feBlend mode="normal" in2="BackgroundImageFix" result="effect1_dropShadow_322_705"/>
<feBlend mode="normal" in="SourceGraphic" in2="effect1_dropShadow_322_705" result="shape"/>
</filter>
<filter id="filter14_d_322_705" x="59.6827" y="126.58" width="27.64" height="31.74" filterUnits="userSpaceOnUse" color-interpolation-filters="sRGB">
<feFlood flood-opacity="0" result="BackgroundImageFix"/>
<feColorMatrix in="SourceAlpha" type="matrix" values="0 0 0 0 0 0 0 0 0 0 0 0 0 0 0 0 0 0 127 0" result="hardAlpha"/>
<feOffset/>
<feGaussianBlur stdDeviation="5"/>
<feComposite in2="hardAlpha" operator="out"/>
<feColorMatrix type="matrix" values="0 0 0 0 0.854167 0 0 0 0 0.854167 0 0 0 0 0.854167 0 0 0 1 0"/>
<feBlend mode="normal" in2="BackgroundImageFix" result="effect1_dropShadow_322_705"/>
<feBlend mode="normal" in="SourceGraphic" in2="effect1_dropShadow_322_705" result="shape"/>
</filter>
<filter id="filter15_d_322_705" x="56.3995" y="238.38" width="33.16" height="36.6201" filterUnits="userSpaceOnUse" color-interpolation-filters="sRGB">
<feFlood flood-opacity="0" result="BackgroundImageFix"/>
<feColorMatrix in="SourceAlpha" type="matrix" values="0 0 0 0 0 0 0 0 0 0 0 0 0 0 0 0 0 0 127 0" result="hardAlpha"/>
<feOffset/>
<feGaussianBlur stdDeviation="5"/>
<feComposite in2="hardAlpha" operator="out"/>
<feColorMatrix type="matrix" values="0 0 0 0 0.854167 0 0 0 0 0.854167 0 0 0 0 0.854167 0 0 0 1 0"/>
<feBlend mode="normal" in2="BackgroundImageFix" result="effect1_dropShadow_322_705"/>
<feBlend mode="normal" in="SourceGraphic" in2="effect1_dropShadow_322_705" result="shape"/>
</filter>
<filter id="filter16_d_322_705" x="56.8395" y="352.4" width="32.76" height="36.5601" filterUnits="userSpaceOnUse" color-interpolation-filters="sRGB">
<feFlood flood-opacity="0" result="BackgroundImageFix"/>
<feColorMatrix in="SourceAlpha" type="matrix" values="0 0 0 0 0 0 0 0 0 0 0 0 0 0 0 0 0 0 127 0" result="hardAlpha"/>
<feOffset/>
<feGaussianBlur stdDeviation="5"/>
<feComposite in2="hardAlpha" operator="out"/>
<feColorMatrix type="matrix" values="0 0 0 0 0.854167 0 0 0 0 0.854167 0 0 0 0 0.854167 0 0 0 1 0"/>
<feBlend mode="normal" in2="BackgroundImageFix" result="effect1_dropShadow_322_705"/>
<feBlend mode="normal" in="SourceGraphic" in2="effect1_dropShadow_322_705" result="shape"/>
</filter>
<filter id="filter17_d_322_705" x="57.1396" y="51.3999" width="32.46" height="36.5601" filterUnits="userSpaceOnUse" color-interpolation-filters="sRGB">
<feFlood flood-opacity="0" result="BackgroundImageFix"/>
<feColorMatrix in="SourceAlpha" type="matrix" values="0 0 0 0 0 0 0 0 0 0 0 0 0 0 0 0 0 0 127 0" result="hardAlpha"/>
<feOffset/>
<feGaussianBlur stdDeviation="5"/>
<feComposite in2="hardAlpha" operator="out"/>
<feColorMatrix type="matrix" values="0 0 0 0 0.854167 0 0 0 0 0.854167 0 0 0 0 0.854167 0 0 0 1 0"/>
<feBlend mode="normal" in2="BackgroundImageFix" result="effect1_dropShadow_322_705"/>
<feBlend mode="normal" in="SourceGraphic" in2="effect1_dropShadow_322_705" result="shape"/>
</filter>
</defs>
</svg>
